<svg xmlns="http://www.w3.org/2000/svg" enable-background="new 0 0 32 32" viewBox="0 0 32 32" id="leetcode"><path fill="#FFE6E2" d="M26,32H6c-3.314,0-6-2.686-6-6V6c0-3.314,2.686-6,6-6h20c3.314,0,6,2.686,6,6v20C32,29.314,29.314,32,26,32z"></path><path fill="#FD907E" d="M22.667,17.57c0-0.495-0.376-0.897-0.84-0.897h-6.71c-0.464,0-0.84,0.403-0.84,0.897c0,0.495,0.376,0.897,0.84,0.897h6.71C22.291,18.468,22.667,18.065,22.667,17.57z"></path><path fill="#FC573B" d="M10.321,20.124l2.875,2.908C13.845,23.685,14.742,24,15.732,24c0.99,0,1.887-0.341,2.536-0.996l1.726-1.758c0.34-0.343,0.328-0.91-0.026-1.267c-0.354-0.357-0.917-0.369-1.256-0.026l-1.784,1.738c-0.308,0.311-0.735,0.441-1.206,0.441c-0.471,0-0.898-0.13-1.206-0.441l-2.865-2.909c-0.309-0.311-0.464-0.767-0.464-1.242c0-0.475,0.156-0.905,0.464-1.216l2.857-2.92c0.309-0.311,0.744-0.43,1.215-0.43c0.471,0,0.898,0.13,1.206,0.441l1.784,1.737c0.34,0.343,0.903,0.331,1.257-0.025c0.354-0.357,0.366-0.925,0.026-1.267l-1.726-1.757c-0.433-0.431-0.981-0.744-1.595-0.887l-0.023-0.005l1.632-1.669c0.341-0.343,0.329-0.911-0.024-1.267c-0.354-0.357-0.917-0.368-1.258-0.025l-6.68,6.734c-0.649,0.655-0.988,1.558-0.988,2.557C9.333,18.54,9.672,19.471,10.321,20.124z"></path></svg>